<svg xmlns="http://www.w3.org/2000/svg" xmlns:xlink="http://www.w3.org/1999/xlink" xmlns:lucid="lucid" width="1173" height="1148"><g transform="translate(-164 -165)" lucid:page-tab-id="0_0"><path d="M0 0h1500v1500H0z" fill="#fff"/><path d="M340 206a6 6 0 0 1 6-6h948a6 6 0 0 1 6 6v1068a6 6 0 0 1-6 6H346a6 6 0 0 1-6-6z" stroke="#3a414a" fill-opacity="0"/><use xlink:href="#a" transform="matrix(1,0,0,1,348,208) translate(426.35185185185185 17.77777777777778)"/><path d="M259.75 760.82c0 10.9-8.84 19.75-19.75 19.75-10.9 0-19.75-8.84-19.75-19.75 0-10.9 8.84-19.75 19.75-19.75 10.9 0 19.75 8.84 19.75 19.75z" stroke="#3a414a" fill="#fff"/><path d="M240 780.57v49.3a20.7 20.7 0 0 0 3.2 11.07l36.8 58.13m-40-63.2l-40 63.2m0-98.75h80" stroke="#3a414a" fill="none"/><path d="M200 747.07a6 6 0 0 1 6-6h68a6 6 0 0 1 6 6v168a6 6 0 0 1-6 6h-68a6 6 0 0 1-6-6z" fill="none"/><use xlink:href="#b" transform="matrix(1,0,0,1,120,899.0683751048375) translate(81.82098765432099 17.77777777777778)"/><path d="M600 500c0 33.14-35.82 60-80 60s-80-26.86-80-60 35.82-60 80-60 80 26.86 80 60z" stroke="#3a414a" fill="#fff"/><use xlink:href="#c" transform="matrix(1,0,0,1,440,440) translate(58.029999999999994 63.15)"/><path d="M241 820h143a6 6 0 0 0 6-6V506a6 6 0 0 1 6-6h43M241 820h-3.5" stroke="#3a414a" fill="none"/><path d="M439.5 500v.5h-.5v-1h.5z" stroke="#3a414a" stroke-width=".05" fill="#3a414a"/><path d="M241 820h143a6 6 0 0 1 6 6v368a6 6 0 0 0 6 6h343M241 820h-3.5" stroke="#3a414a" fill="none"/><path d="M739.5 1200v.5h-.5v-1h.5z" stroke="#3a414a" stroke-width=".05" fill="#3a414a"/><path d="M900 1200c0 33.14-35.82 60-80 60s-80-26.86-80-60 35.82-60 80-60 80 26.86 80 60z" stroke="#3a414a" fill="#fff"/><use xlink:href="#d" transform="matrix(1,0,0,1,740,1140) translate(22.054999999999993 63.15)"/><use xlink:href="#e" transform="matrix(1,0,0,1,740,1140) translate(82.95500000000001 63.15)"/><path d="M660 1120c0 33.14-35.82 60-80 60s-80-26.86-80-60 35.82-60 80-60 80 26.86 80 60z" stroke="#3a414a" fill="#fff"/><use xlink:href="#d" transform="matrix(1,0,0,1,500,1060) translate(28.57999999999999 63.15)"/><use xlink:href="#f" transform="matrix(1,0,0,1,500,1060) translate(89.48 63.15)"/><path d="M241 820h143a6 6 0 0 1 6 6v288a6 6 0 0 0 6 6h103M241 820h-3.5" stroke="#3a414a" fill="none"/><path d="M499.5 1120v.5h-.5v-1h.5z" stroke="#3a414a" stroke-width=".05" fill="#3a414a"/><path d="M900 360c0 33.14-35.82 60-80 60s-80-26.86-80-60 35.82-60 80-60 80 26.86 80 60z" stroke="#3a414a" fill="#fff"/><use xlink:href="#g" transform="matrix(1,0,0,1,740,300) translate(28.029999999999994 63.15)"/><path d="M520.5 439h-1v-4.87h1zm0-9.73h-1v-9.74h1zm0-14.6h-1v-9.74h1zm0-14.6h-1v-9.74h1zm0-14.6h-1v-9.74h1zm10.68-24.97h-5.16l-.88.07-.84.2-.8.33-.73.45-.66.56-.55.67-.45.73-.33.8-.2.84-.07.88v4.85h-1v-4.9l.08-1 .24-.98.4-.95.52-.87.66-.78.78-.66.87-.53.94-.38.98-.24 1-.08h5.2zm9.76 0h-4.6v-1h4.6zm114.46 0h-10.35v-1h10.36zm15.53 0h-10.35v-1h10.35zm15.53 0H676.1v-1h10.36zm15.53 0h-10.36v-1H702zm15.52 0h-10.35v-1h10.35zm10.35 0h-5.17v-1h5.17zm-88 0h-.8v-1h.8z" stroke="#3a414a" stroke-width=".05" fill="#3a414a"/><path d="M520.5 439.5h-1v-.5h1z" fill="#3a414a"/><path d="M520.52 439.54l-.5-.02h-.54v-.56h1.04zm-1-.53v.48h.96v-.47z" stroke="#3a414a" stroke-width=".05" fill="#3a414a"/><path d="M738.52 360l-12.9 7.64v-15.28z" fill="#fff"/><path d="M739.5 360l-14.4 8.5v-17zm-13.4 6.76l11.44-6.76-11.43-6.76z" stroke="#3a414a" stroke-width=".05" fill="#3a414a"/><use xlink:href="#h" transform="matrix(1,0,0,1,540.9409360467421,348.02387152777777) translate(0 17.730034722222218)"/><path d="M1120 440c0 33.14-35.82 60-80 60s-80-26.86-80-60 35.82-60 80-60 80 26.86 80 60z" stroke="#3a414a" fill="#fff"/><use xlink:href="#i" transform="matrix(1,0,0,1,960,380) translate(26.629999999999995 51.9)"/><use xlink:href="#j" transform="matrix(1,0,0,1,960,380) translate(76.48 51.9)"/><use xlink:href="#k" transform="matrix(1,0,0,1,960,380) translate(113.38 51.9)"/><use xlink:href="#l" transform="matrix(1,0,0,1,960,380) translate(61.055 73.5)"/><path d="M622.12 500.5h-5.24v-1h5.24zm15.7 0h-10.46v-1h10.47zm15.72 0h-10.47v-1h10.47zm15.72 0h-10.48v-1h10.48zm15.7 0H674.5v-1h10.47zm15.72 0H690.2v-1h10.48zm15.7 0h-10.46v-1h10.47zm15.72 0h-10.47v-1h10.47zm15.7 0h-10.46v-1h10.47zm15.73 0h-10.48v-1h10.48zm16.97-6.48l-.08 1-.24 1-.4.93-.52.87-.66.78-.78.66-.87.53-.94.38-.98.24-1 .08h-5.26v-1h5.22l.88-.07.84-.2.8-.33.73-.45.66-.56.55-.67.45-.73.33-.8.2-.84.07-.88v-5.3h1zm0-10.7h-1v-2.65h1zm0-24h-1v-2.65h1zm10.3-18.82h-4.78l-.88.07-.84.2-.8.33-.73.45-.66.56-.55.67-.45.73-.33.8-.2.84-.07.88v5.3h-1V446l.08-1 .24-1 .4-.93.52-.87.66-.78.78-.66.87-.53.94-.38.98-.24 1-.08h4.83zm14.42 0h-9.6v-1h9.6zm14.42 0h-9.6v-1h9.6zm14.42 0h-9.62v-1h9.62zm14.4 0h-9.6v-1h9.6zm14.43 0h-9.62v-1h9.6zm14.4 0h-9.6v-1h9.6zm14.42 0h-9.6v-1h9.6zm14.42 0h-9.6v-1h9.6zm14.42 0h-9.62v-1h9.62zm14.4 0h-9.6v-1h9.6zm14.43 0h-9.62v-1h9.6zm9.6 0h-4.8v-1h4.8z" stroke="#3a414a" stroke-width=".05" fill="#3a414a"/><path d="M616.38 504.63L602.12 500l14.26-4.63z" fill="#fff"/><path d="M616.88 505.32L600.5 500l16.38-5.32zM603.74 500l12.14 3.95v-7.9z" stroke="#3a414a" stroke-width=".05" fill="#3a414a"/><path d="M959.5 440v.5h-.5v-1h.5z" fill="#3a414a"/><path d="M959.52 440v.53h-.56v-1.05h.58zm-.5-.48v.96h.46v-.96z" stroke="#3a414a" stroke-width=".05" fill="#3a414a"/><use xlink:href="#m" transform="matrix(1,0,0,1,725.7530864197531,459.33333333333326) translate(0 14.222222222222223)"/><path d="M1280 680c0 33.14-35.82 60-80 60s-80-26.86-80-60 35.82-60 80-60 80 26.86 80 60z" stroke="#3a414a" fill="#fff"/><use xlink:href="#n" transform="matrix(1,0,0,1,1120,620) translate(30.629999999999992 40.65)"/><use xlink:href="#o" transform="matrix(1,0,0,1,1120,620) translate(86.53 40.65)"/><use xlink:href="#p" transform="matrix(1,0,0,1,1120,620) translate(19.62999999999999 62.25)"/><use xlink:href="#q" transform="matrix(1,0,0,1,1120,620) translate(60.57999999999999 62.25)"/><use xlink:href="#r" transform="matrix(1,0,0,1,1120,620) translate(130.38 62.25)"/><use xlink:href="#s" transform="matrix(1,0,0,1,1120,620) translate(55.504999999999995 83.85000000000001)"/><path d="M720.5 573.98l.07.88.2.84.33.8.45.73.56.66.67.55.73.45.8.33.84.2.88.07h4.7v1h-4.74l-1-.08-1-.24-.93-.4-.87-.52-.78-.66-.66-.78-.53-.87-.38-.94-.24-.98-.08-1v-4.55h1zm24.33 6.52h-9.4v-1h9.4zm14.13 0h-9.42v-1h9.42zm14.12 0h-9.4v-1h9.4zm14.13 0h-9.4v-1h9.4zm14.13 0h-9.4v-1h9.4zm14.13 0h-9.42v-1h9.42zm14.12 0h-9.4v-1h9.4zm9.42 0h-4.7v-1h4.7zm-118.5-15.57h-1v-9.06h1zm0-13.6h-1v-.66h1zm0-22h-1v-.66h1zm0-5.2h-1v-9.06h1zm-5.48-24.55l1 .24.93.4.87.52.78.66.66.78.53.87.38.94.24.98.08 1v4.55h-1v-4.5l-.07-.9-.2-.83-.33-.8-.45-.73-.56-.66-.67-.55-.73-.45-.8-.33-.84-.2-.88-.07h-4.83v-1h4.87zm-98.04.92h-4.85v-1h4.85zm14.55 0h-9.7v-1h9.7zm14.56 0h-9.72v-1h9.7zm14.54 0h-9.7v-1h9.7zm14.55 0h-9.7v-1h9.7zm14.54 0h-9.7v-1h9.7zm14.56 0h-9.7v-1h9.7z" stroke="#3a414a" stroke-width=".05" fill="#3a414a"/><path d="M614.4 507.64L601.47 500l12.9-7.64z" fill="#fff"/><path d="M614.9 508.5l-14.4-8.5 14.4-8.5zm-12.44-8.5l11.43 6.76v-13.52z" stroke="#3a414a" stroke-width=".05" fill="#3a414a"/><path d="M839.5 580v.5h-.5v-1h.5z" fill="#3a414a"/><path d="M839.52 580v.53h-.56v-1.05h.58zm-.5-.48v.96h.46v-.96z" stroke="#3a414a" stroke-width=".05" fill="#3a414a"/><use xlink:href="#m" transform="matrix(1,0,0,1,665.7530864197531,529.3333333333334) translate(0 14.222222222222223)"/><path d="M1000 580c0 33.14-35.82 60-80 60s-80-26.86-80-60 35.82-60 80-60 80 26.86 80 60z" stroke="#3a414a" fill="#fff"/><use xlink:href="#t" transform="matrix(1,0,0,1,840,520) translate(32.504999999999995 51.9)"/><use xlink:href="#r" transform="matrix(1,0,0,1,840,520) translate(117.505 51.9)"/><use xlink:href="#s" transform="matrix(1,0,0,1,840,520) translate(55.505 73.5)"/><path d="M1060.5 673.98l.07.88.2.84.33.8.45.73.56.66.67.55.73.45.8.33.84.2.88.07h4.63v1h-4.67l-1-.08-1-.24-.93-.4-.87-.52-.78-.66-.66-.78-.53-.87-.38-.94-.24-.98-.08-1v-4.9h1zm24.1 6.52h-9.3v-1h9.3zm13.97 0h-9.3v-1h9.3zm9.3 0h-4.65v-1h4.65zm-47.37-16.28h-1v-9.78h1zm0-14.66h-1v-9.06h1zm0-30.06h-1v-9.06h1zm0-13.94h-1v-9.78h1zm-5.48-25.98l1 .24.93.4.87.52.78.66.66.78.53.87.38.94.24.98.08 1v4.9h-1v-4.86l-.07-.88-.2-.84-.33-.8-.45-.73-.56-.66-.67-.55-.73-.45-.8-.33-.84-.2-.88-.07h-4.4v-1h4.44zm-49.6.92H1001v-1h4.42zm13.25 0h-8.84v-1h8.84zm13.25 0h-8.84v-1h8.84zm13.25 0h-8.84v-1h8.84z" stroke="#3a414a" stroke-width=".05" fill="#3a414a"/><path d="M1001 580.5h-.5v-1h.5z" fill="#3a414a"/><path d="M1001.04 580.52h-.58v-1.04h.58zm-.52-1v.96h.47v-.96z" stroke="#3a414a" stroke-width=".05" fill="#3a414a"/><path d="M1118.52 680l-12.9 7.64v-15.28z" fill="#fff"/><path d="M1119.5 680l-14.4 8.5v-17zm-13.4 6.76l11.44-6.76-11.43-6.76z" stroke="#3a414a" stroke-width=".05" fill="#3a414a"/><use xlink:href="#u" transform="matrix(1,0,0,1,1016.0818142361111,619.4991319444445) translate(0 15.668402777777775)"/><path d="M680 660c0 33.14-35.82 60-80 60s-80-26.86-80-60 35.82-60 80-60 80 26.86 80 60z" stroke="#3a414a" fill="#fff"/><use xlink:href="#v" transform="matrix(1,0,0,1,520,600) translate(43.60499999999999 63.15)"/><path d="M241 820h143a6 6 0 0 0 6-6V666a6 6 0 0 1 6-6h123M241 820h-3.5" stroke="#3a414a" fill="none"/><path d="M519.5 660v.5h-.5v-1h.5zM790.5 753.98l.07.88.2.84.33.8.45.73.56.66.67.55.73.45.8.33.84.2.88.07h5.08v1h-5.12l-1-.08-1-.24-.93-.4-.87-.52-.78-.66-.66-.78-.53-.87-.38-.94-.24-.98-.08-1v-4.9h1zm25.92 6.52h-10.2v-1h10.2zm15.3 0h-10.2v-1h10.2zm15.32 0h-10.2v-1h10.2zm15.3 0h-10.2v-1h10.2zm15.32 0h-10.2v-1h10.2zm10.2 0h-5.1v-1h5.1zm-97.36-16.28h-1v-9.78h1zm0-14.66h-1v-7.58h1zm0-31.54h-1v-7.58h1zm0-12.46h-1v-9.78h1zm-5.48-25.98l1 .24.93.4.87.52.78.66.66.78.53.87.38.94.24.98.08 1v4.9h-1v-4.86l-.07-.88-.2-.84-.33-.8-.45-.73-.56-.66-.67-.55-.73-.45-.8-.33-.84-.2-.88-.07h-4.88v-1H784zm-99.12.92H681v-1h4.9zm14.72 0h-9.8v-1h9.8zm14.7 0h-9.8v-1h9.8zm14.73 0h-9.8v-1h9.8zm14.7 0h-9.8v-1h9.8zm14.73 0h-9.8v-1h9.8zm14.7 0h-9.8v-1h9.8z" stroke="#3a414a" stroke-width=".05" fill="#3a414a"/><path d="M681 660.5h-.5v-1h.5z" fill="#3a414a"/><path d="M681.04 660.52h-.58v-1.04h.58zm-.52-1v.96h.47v-.96z" stroke="#3a414a" stroke-width=".05" fill="#3a414a"/><path d="M898.52 760l-12.9 7.64v-15.28z" fill="#fff"/><path d="M899.5 760l-14.4 8.5v-17zm-13.4 6.76l11.44-6.76-11.43-6.76z" stroke="#3a414a" stroke-width=".05" fill="#3a414a"/><use xlink:href="#w" transform="matrix(1,0,0,1,740.9409360532408,698.0238715277778) translate(0 17.730034722222218)"/><path d="M1060 760c0 33.14-35.82 60-80 60s-80-26.86-80-60 35.82-60 80-60 80 26.86 80 60z" stroke="#3a414a" fill="#fff"/><use xlink:href="#n" transform="matrix(1,0,0,1,900,700) translate(18.12999999999999 51.9)"/><use xlink:href="#x" transform="matrix(1,0,0,1,900,700) translate(74.03 51.9)"/><use xlink:href="#y" transform="matrix(1,0,0,1,900,700) translate(121.88000000000001 51.9)"/><use xlink:href="#z" transform="matrix(1,0,0,1,900,700) translate(32.029999999999994 73.5)"/><use xlink:href="#A" transform="matrix(1,0,0,1,900,700) translate(76.03 73.5)"/><path d="M241 820h143a6 6 0 0 1 6 6v8a6 6 0 0 0 6 6h283M241 820h-3.5" stroke="#3a414a" fill="none"/><path d="M679.5 840v.5h-.5v-1h.5z" stroke="#3a414a" stroke-width=".05" fill="#3a414a"/><path d="M840 840c0 33.14-35.82 60-80 60s-80-26.86-80-60 35.82-60 80-60 80 26.86 80 60z" stroke="#3a414a" fill="#fff"/><g><use xlink:href="#B" transform="matrix(1,0,0,1,680,780) translate(11.079999999999993 63.15)"/><use xlink:href="#s" transform="matrix(1,0,0,1,680,780) translate(99.93 63.15)"/></g><path d="M241 820h143a6 6 0 0 1 6 6v128a6 6 0 0 0 6 6h103M241 820h-3.5" stroke="#3a414a" fill="none"/><path d="M499.5 960v.5h-.5v-1h.5z" stroke="#3a414a" stroke-width=".05" fill="#3a414a"/><path d="M660 960c0 33.14-35.82 60-80 60s-80-26.86-80-60 35.82-60 80-60 80 26.86 80 60z" stroke="#3a414a" fill="#fff"/><g><use xlink:href="#C" transform="matrix(1,0,0,1,500,900) translate(10.054999999999987 63.15)"/><use xlink:href="#e" transform="matrix(1,0,0,1,500,900) translate(94.955 63.15)"/></g><path d="M900 1040c0 33.14-35.82 60-80 60s-80-26.86-80-60 35.82-60 80-60 80 26.86 80 60z" stroke="#3a414a" fill="#fff"/><g><use xlink:href="#C" transform="matrix(1,0,0,1,740,980) translate(16.57999999999999 63.15)"/><use xlink:href="#f" transform="matrix(1,0,0,1,740,980) translate(101.48 63.15)"/></g><path d="M241 820h143a6 6 0 0 1 6 6v208a6 6 0 0 0 6 6h343M241 820h-3.5" stroke="#3a414a" fill="none"/><path d="M739.5 1040v.5h-.5v-1h.5z" stroke="#3a414a" stroke-width=".05" fill="#3a414a"/><defs><path fill="#3a414a" d="M30 0v-248h33v221h125V0H30" id="D"/><path fill="#3a414a" d="M24-231v-30h32v30H24zM24 0v-190h32V0H24" id="E"/><path fill="#3a414a" d="M117-194c89-4 53 116 60 194h-32v-121c0-31-8-49-39-48C34-167 62-67 57 0H25l-1-190h30c1 10-1 24 2 32 11-22 29-35 61-36" id="F"/><path fill="#3a414a" d="M143 0L79-87 56-68V0H24v-261h32v163l83-92h37l-77 82L181 0h-38" id="G"/><path fill="#3a414a" d="M160-131c35 5 61 23 61 61C221 17 115-2 30 0v-248c76 3 177-17 177 60 0 33-19 50-47 57zm-97-11c50-1 110 9 110-42 0-47-63-36-110-37v79zm0 115c55-2 124 14 124-45 0-56-70-42-124-44v89" id="H"/><path fill="#3a414a" d="M141-36C126-15 110 5 73 4 37 3 15-17 15-53c-1-64 63-63 125-63 3-35-9-54-41-54-24 1-41 7-42 31l-33-3c5-37 33-52 76-52 45 0 72 20 72 64v82c-1 20 7 32 28 27v20c-31 9-61-2-59-35zM48-53c0 20 12 33 32 33 41-3 63-29 60-74-43 2-92-5-92 41" id="I"/><path fill="#3a414a" d="M135-143c-3-34-86-38-87 0 15 53 115 12 119 90S17 21 10-45l28-5c4 36 97 45 98 0-10-56-113-15-118-90-4-57 82-63 122-42 12 7 21 19 24 35" id="J"/><path fill="#3a414a" d="M100-194c63 0 86 42 84 106H49c0 40 14 67 53 68 26 1 43-12 49-29l28 8c-11 28-37 45-77 45C44 4 14-33 15-96c1-61 26-98 85-98zm52 81c6-60-76-77-97-28-3 7-6 17-6 28h103" id="K"/><g id="a"><use transform="matrix(0.06172839506172839,0,0,0.06172839506172839,0,0)" xlink:href="#D"/><use transform="matrix(0.06172839506172839,0,0,0.06172839506172839,12.345679012345679,0)" xlink:href="#E"/><use transform="matrix(0.06172839506172839,0,0,0.06172839506172839,17.22222222222222,0)" xlink:href="#F"/><use transform="matrix(0.06172839506172839,0,0,0.06172839506172839,29.5679012345679,0)" xlink:href="#G"/><use transform="matrix(0.06172839506172839,0,0,0.06172839506172839,40.67901234567901,0)" xlink:href="#H"/><use transform="matrix(0.06172839506172839,0,0,0.06172839506172839,55.49382716049382,0)" xlink:href="#I"/><use transform="matrix(0.06172839506172839,0,0,0.06172839506172839,67.8395061728395,0)" xlink:href="#J"/><use transform="matrix(0.06172839506172839,0,0,0.06172839506172839,78.95061728395062,0)" xlink:href="#K"/></g><path fill="#3a414a" d="M232-93c-1 65-40 97-104 97C67 4 28-28 28-90v-158h33c8 89-33 224 67 224 102 0 64-133 71-224h33v155" id="L"/><path fill="#3a414a" d="M84 4C-5 8 30-112 23-190h32v120c0 31 7 50 39 49 72-2 45-101 50-169h31l1 190h-30c-1-10 1-25-2-33-11 22-28 36-60 37" id="M"/><path fill="#3a414a" d="M141-36C126-15 110 5 73 4 37 3 15-17 15-53c-1-64 63-63 125-63 3-35-9-54-41-54-24 1-41 7-42 31l-33-3c5-37 33-52 76-52 45 0 72 20 72 64v82c-1 20 7 32 28 27v20c-31 9-61-2-59-35zM48-53c0 20 12 33 32 33 41-3 63-29 60-74-43 2-92-5-92 41zm25-158c8-23 27-35 38-54h36v5l-58 49H73" id="N"/><path fill="#3a414a" d="M114-163C36-179 61-72 57 0H25l-1-190h30c1 12-1 29 2 39 6-27 23-49 58-41v29" id="O"/><path fill="#3a414a" d="M100-194c62-1 85 37 85 99 1 63-27 99-86 99S16-35 15-95c0-66 28-99 85-99zM99-20c44 1 53-31 53-75 0-43-8-75-51-75s-53 32-53 75 10 74 51 75" id="P"/><g id="b"><use transform="matrix(0.06172839506172839,0,0,0.06172839506172839,0,0)" xlink:href="#L"/><use transform="matrix(0.06172839506172839,0,0,0.06172839506172839,15.987654320987653,0)" xlink:href="#J"/><use transform="matrix(0.06172839506172839,0,0,0.06172839506172839,27.098765432098766,0)" xlink:href="#M"/><use transform="matrix(0.06172839506172839,0,0,0.06172839506172839,39.44444444444444,0)" xlink:href="#N"/><use transform="matrix(0.06172839506172839,0,0,0.06172839506172839,51.79012345679012,0)" xlink:href="#O"/><use transform="matrix(0.06172839506172839,0,0,0.06172839506172839,59.1358024691358,0)" xlink:href="#E"/><use transform="matrix(0.06172839506172839,0,0,0.06172839506172839,64.01234567901234,0)" xlink:href="#P"/></g><path d="M30 0v-248h33v221h125V0H30" id="Q"/><path d="M100-194c62-1 85 37 85 99 1 63-27 99-86 99S16-35 15-95c0-66 28-99 85-99zM99-20c44 1 53-31 53-75 0-43-8-75-51-75s-53 32-53 75 10 74 51 75" id="R"/><path d="M177-190C167-65 218 103 67 71c-23-6-38-20-44-43l32-5c15 47 100 32 89-28v-30C133-14 115 1 83 1 29 1 15-40 15-95c0-56 16-97 71-98 29-1 48 16 59 35 1-10 0-23 2-32h30zM94-22c36 0 50-32 50-73 0-42-14-75-50-75-39 0-46 34-46 75s6 73 46 73" id="S"/><path d="M24-231v-30h32v30H24zM24 0v-190h32V0H24" id="T"/><path d="M117-194c89-4 53 116 60 194h-32v-121c0-31-8-49-39-48C34-167 62-67 57 0H25l-1-190h30c1 10-1 24 2 32 11-22 29-35 61-36" id="U"/><g id="c"><use transform="matrix(0.05,0,0,0.05,0,0)" xlink:href="#Q"/><use transform="matrix(0.05,0,0,0.05,10,0)" xlink:href="#R"/><use transform="matrix(0.05,0,0,0.05,20,0)" xlink:href="#S"/><use transform="matrix(0.05,0,0,0.05,30,0)" xlink:href="#T"/><use transform="matrix(0.05,0,0,0.05,33.95,0)" xlink:href="#U"/></g><path d="M240 0l2-218c-23 76-54 145-80 218h-23L58-218 59 0H30v-248h44l77 211c21-75 51-140 76-211h43V0h-30" id="V"/><path d="M141-36C126-15 110 5 73 4 37 3 15-17 15-53c-1-64 63-63 125-63 3-35-9-54-41-54-24 1-41 7-42 31l-33-3c5-37 33-52 76-52 45 0 72 20 72 64v82c-1 20 7 32 28 27v20c-31 9-61-2-59-35zM48-53c0 20 12 33 32 33 41-3 63-29 60-74-43 2-92-5-92 41" id="W"/><path d="M59-47c-2 24 18 29 38 22v24C64 9 27 4 27-40v-127H5v-23h24l9-43h21v43h35v23H59v120" id="X"/><path d="M100-194c63 0 86 42 84 106H49c0 40 14 67 53 68 26 1 43-12 49-29l28 8c-11 28-37 45-77 45C44 4 14-33 15-96c1-61 26-98 85-98zm52 81c6-60-76-77-97-28-3 7-6 17-6 28h103" id="Y"/><path d="M114-163C36-179 61-72 57 0H25l-1-190h30c1 12-1 29 2 39 6-27 23-49 58-41v29" id="Z"/><g id="d"><use transform="matrix(0.05,0,0,0.05,0,0)" xlink:href="#V"/><use transform="matrix(0.05,0,0,0.05,14.950000000000001,0)" xlink:href="#W"/><use transform="matrix(0.05,0,0,0.05,24.950000000000003,0)" xlink:href="#U"/><use transform="matrix(0.05,0,0,0.05,34.95,0)" xlink:href="#X"/><use transform="matrix(0.05,0,0,0.05,39.95,0)" xlink:href="#Y"/><use transform="matrix(0.05,0,0,0.05,49.95,0)" xlink:href="#Z"/></g><path d="M30-248c87 1 191-15 191 75 0 78-77 80-158 76V0H30v-248zm33 125c57 0 124 11 124-50 0-59-68-47-124-48v98" id="aa"/><path d="M135-143c-3-34-86-38-87 0 15 53 115 12 119 90S17 21 10-45l28-5c4 36 97 45 98 0-10-56-113-15-118-90-4-57 82-63 122-42 12 7 21 19 24 35" id="ab"/><g id="e"><use transform="matrix(0.05,0,0,0.05,0,0)" xlink:href="#aa"/><use transform="matrix(0.05,0,0,0.05,12,0)" xlink:href="#W"/><use transform="matrix(0.05,0,0,0.05,22,0)" xlink:href="#ab"/><use transform="matrix(0.05,0,0,0.05,31,0)" xlink:href="#X"/><use transform="matrix(0.05,0,0,0.05,36,0)" xlink:href="#W"/><use transform="matrix(0.05,0,0,0.05,46,0)" xlink:href="#ab"/></g><path d="M143 0L79-87 56-68V0H24v-261h32v163l83-92h37l-77 82L181 0h-38" id="ac"/><g id="f"><use transform="matrix(0.05,0,0,0.05,0,0)" xlink:href="#Q"/><use transform="matrix(0.05,0,0,0.05,10,0)" xlink:href="#T"/><use transform="matrix(0.05,0,0,0.05,13.949999999999998,0)" xlink:href="#U"/><use transform="matrix(0.05,0,0,0.05,23.95,0)" xlink:href="#ac"/><use transform="matrix(0.05,0,0,0.05,32.95,0)" xlink:href="#ab"/></g><path d="M205 0l-28-72H64L36 0H1l101-248h38L239 0h-34zm-38-99l-47-123c-12 45-31 82-46 123h93" id="ad"/><path d="M84 4C-5 8 30-112 23-190h32v120c0 31 7 50 39 49 72-2 45-101 50-169h31l1 190h-30c-1-10 1-25-2-33-11 22-28 36-60 37" id="ae"/><path d="M96-169c-40 0-48 33-48 73s9 75 48 75c24 0 41-14 43-38l32 2c-6 37-31 61-74 61-59 0-76-41-82-99-10-93 101-131 147-64 4 7 5 14 7 22l-32 3c-4-21-16-35-41-35" id="af"/><path d="M96-169c-40 0-48 33-48 73s9 75 48 75c24 0 41-14 43-38l32 2c-6 37-31 61-74 61-59 0-76-41-82-99-10-93 101-131 147-64 4 7 5 14 7 22l-32 3c-4-21-16-35-41-35zm3 187c19-1 33 8 33 26 0 31-30 33-64 32V58c18 2 39 4 41-13 1-15-18-13-34-13L87 0h19" id="ag"/><path d="M141-36C126-15 110 5 73 4 37 3 15-17 15-53c-1-64 63-63 125-63 3-35-9-54-41-54-24 1-41 7-42 31l-33-3c5-37 33-52 76-52 45 0 72 20 72 64v82c-1 20 7 32 28 27v20c-31 9-61-2-59-35zM48-53c0 20 12 33 32 33 41-3 63-29 60-74-43 2-92-5-92 41zm117-205c-3 23-9 48-36 47-26-1-65-44-74 0H39c4-23 8-48 36-47s64 44 74 0h16" id="ah"/><g id="g"><use transform="matrix(0.05,0,0,0.05,0,0)" xlink:href="#ad"/><use transform="matrix(0.05,0,0,0.05,12,0)" xlink:href="#ae"/><use transform="matrix(0.05,0,0,0.05,22,0)" xlink:href="#X"/><use transform="matrix(0.05,0,0,0.05,27,0)" xlink:href="#Y"/><use transform="matrix(0.05,0,0,0.05,37,0)" xlink:href="#U"/><use transform="matrix(0.05,0,0,0.05,47,0)" xlink:href="#X"/><use transform="matrix(0.05,0,0,0.05,52,0)" xlink:href="#T"/><use transform="matrix(0.05,0,0,0.05,55.95,0)" xlink:href="#af"/><use transform="matrix(0.05,0,0,0.05,64.95,0)" xlink:href="#W"/><use transform="matrix(0.05,0,0,0.05,74.95,0)" xlink:href="#ag"/><use transform="matrix(0.05,0,0,0.05,83.95,0)" xlink:href="#ah"/><use transform="matrix(0.05,0,0,0.05,93.95,0)" xlink:href="#R"/></g><path fill="#333" d="M15-91v-56l181-69v40L49-119l147 57v40" id="ai"/><path d="M375 0H183v-1456h192V0" id="aj"/><path d="M589-945c-131 0-219 81-264 174V0H140v-1082h175l6 136c83-104 191-156 324-156 229 0 346 129 346 387V0H806v-716c-2-153-65-229-217-229" id="ak"/><path d="M277-555c0 244 77 420 297 424 127 2 249-93 255-210h175C980-127 805 20 574 20 258 20 81-222 92-562c11-319 164-533 481-540 237-5 426 165 431 392H829c-7-133-115-242-256-240-209 4-296 166-296 395" id="al"/><path d="M341 0H156v-1536h185V0" id="am"/><path d="M491 20c-241-1-355-148-355-398v-704h185v699c0 164 67 246 200 246 141 0 235-53 282-158v-787h185V0H812l-4-107C736-22 630 20 491 20" id="an"/><path d="M520 20C244 20 95-247 95-550c0-298 151-550 427-552 127 0 227 43 301 130v-564h185V0H838l-9-116C755-25 652 20 520 20zm48-965c-210 0-288 177-288 416 0 218 87 392 286 392 117 0 203-53 257-158v-497c-55-102-140-153-255-153" id="ao"/><path d="M599-131c141 0 220-65 285-146l113 88C906-50 770 20 589 20 281 21 93-214 93-545c0-223 93-397 233-485 74-48 154-72 240-72 300 2 449 218 445 537v77H278c0 197 129 357 321 357zm227-509c-3-180-88-310-260-310-170 0-264 140-282 310h542" id="ap"/><path fill="#333" d="M15-22v-40l146-57-146-57v-40l181 69v56" id="aq"/><g id="h"><use transform="matrix(0.04320987654320987,0,0,0.04320987654320987,0,0)" xlink:href="#ai"/><use transform="matrix(0.04320987654320987,0,0,0.04320987654320987,9.074074074074073,0)" xlink:href="#ai"/><use transform="matrix(0.00933159722222222,0,0,0.00933159722222222,18.148148148148145,0)" xlink:href="#aj"/><use transform="matrix(0.00933159722222222,0,0,0.00933159722222222,23.345847800925924,0)" xlink:href="#ak"/><use transform="matrix(0.00933159722222222,0,0,0.00933159722222222,33.89055266203703,0)" xlink:href="#al"/><use transform="matrix(0.00933159722222222,0,0,0.00933159722222222,43.894024884259245,0)" xlink:href="#am"/><use transform="matrix(0.00933159722222222,0,0,0.00933159722222222,48.531828703703695,0)" xlink:href="#an"/><use transform="matrix(0.00933159722222222,0,0,0.00933159722222222,59.06720196759258,0)" xlink:href="#ao"/><use transform="matrix(0.00933159722222222,0,0,0.00933159722222222,69.84519675925924,0)" xlink:href="#ap"/><use transform="matrix(0.04320987654320987,0,0,0.04320987654320987,79.96997974537035,0)" xlink:href="#aq"/><use transform="matrix(0.04320987654320987,0,0,0.04320987654320987,89.04405381944443,0)" xlink:href="#aq"/></g><path d="M30 0v-248h187v28H63v79h144v27H63v87h162V0H30" id="ar"/><path d="M141 0L90-78 38 0H4l68-98-65-92h35l48 74 47-74h35l-64 92 68 98h-35" id="as"/><path d="M115-194c53 0 69 39 70 98 0 66-23 100-70 100C84 3 66-7 56-30L54 0H23l1-261h32v101c10-23 28-34 59-34zm-8 174c40 0 45-34 45-75 0-40-5-75-45-74-42 0-51 32-51 76 0 43 10 73 51 73" id="at"/><g id="i"><use transform="matrix(0.05,0,0,0.05,0,0)" xlink:href="#ar"/><use transform="matrix(0.05,0,0,0.05,12,0)" xlink:href="#as"/><use transform="matrix(0.05,0,0,0.05,21,0)" xlink:href="#T"/><use transform="matrix(0.05,0,0,0.05,24.95,0)" xlink:href="#at"/><use transform="matrix(0.05,0,0,0.05,34.95,0)" xlink:href="#T"/><use transform="matrix(0.05,0,0,0.05,38.900000000000006,0)" xlink:href="#Z"/></g><g id="j"><use transform="matrix(0.05,0,0,0.05,0,0)" xlink:href="#Y"/><use transform="matrix(0.05,0,0,0.05,10,0)" xlink:href="#Z"/><use transform="matrix(0.05,0,0,0.05,15.949999999999998,0)" xlink:href="#Z"/><use transform="matrix(0.05,0,0,0.05,21.9,0)" xlink:href="#R"/></g><path d="M85-194c31 0 48 13 60 33l-1-100h32l1 261h-30c-2-10 0-23-3-31C134-8 116 4 85 4 32 4 16-35 15-94c0-66 23-100 70-100zm9 24c-40 0-46 34-46 75 0 40 6 74 45 74 42 0 51-32 51-76 0-42-9-74-50-73" id="au"/><g id="k"><use transform="matrix(0.05,0,0,0.05,0,0)" xlink:href="#au"/><use transform="matrix(0.05,0,0,0.05,10,0)" xlink:href="#Y"/></g><path d="M24 0v-261h32V0H24" id="av"/><g id="l"><use transform="matrix(0.05,0,0,0.05,0,0)" xlink:href="#av"/><use transform="matrix(0.05,0,0,0.05,3.95,0)" xlink:href="#R"/><use transform="matrix(0.05,0,0,0.05,13.949999999999998,0)" xlink:href="#S"/><use transform="matrix(0.05,0,0,0.05,23.95,0)" xlink:href="#T"/><use transform="matrix(0.05,0,0,0.05,27.899999999999995,0)" xlink:href="#U"/></g><path fill="#333" d="M185-48c-13 30-37 53-82 52C43 2 14-33 14-96s30-98 90-98c62 0 83 45 84 108H66c0 31 8 55 39 56 18 0 30-7 34-22zm-45-69c5-46-57-63-70-21-2 6-4 13-4 21h74" id="aw"/><path fill="#333" d="M144 0l-44-69L55 0H2l70-98-66-92h53l41 62 40-62h54l-67 91 71 99h-54" id="ax"/><path fill="#333" d="M115-3C79 11 28 4 28-45v-112H4v-33h27l15-45h31v45h36v33H77v99c-1 23 16 31 38 25v30" id="ay"/><path fill="#333" d="M135-194c87-1 58 113 63 194h-50c-7-57 23-157-34-157-59 0-34 97-39 157H25l-1-190h47c2 12-1 28 3 38 12-26 28-41 61-42" id="az"/><path fill="#333" d="M88-194c31-1 46 15 58 34l-1-101h50l1 261h-48c-2-10 0-23-3-31C134-8 116 4 84 4 32 4 16-41 15-95c0-56 19-97 73-99zm17 164c33 0 40-30 41-66 1-37-9-64-41-64s-38 30-39 65c0 43 13 65 39 65" id="aA"/><path fill="#333" d="M137-138c1-29-70-34-71-4 15 46 118 7 119 86 1 83-164 76-172 9l43-7c4 19 20 25 44 25 33 8 57-30 24-41C81-84 22-81 20-136c-2-80 154-74 161-7" id="aB"/><g id="m"><use transform="matrix(0.04938271604938272,0,0,0.04938271604938272,0,0)" xlink:href="#ai"/><use transform="matrix(0.04938271604938272,0,0,0.04938271604938272,10.370370370370372,0)" xlink:href="#ai"/><use transform="matrix(0.04938271604938272,0,0,0.04938271604938272,20.740740740740744,0)" xlink:href="#aw"/><use transform="matrix(0.04938271604938272,0,0,0.04938271604938272,30.617283950617285,0)" xlink:href="#ax"/><use transform="matrix(0.04938271604938272,0,0,0.04938271604938272,40.49382716049384,0)" xlink:href="#ay"/><use transform="matrix(0.04938271604938272,0,0,0.04938271604938272,46.37037037037038,0)" xlink:href="#aw"/><use transform="matrix(0.04938271604938272,0,0,0.04938271604938272,56.24691358024693,0)" xlink:href="#az"/><use transform="matrix(0.04938271604938272,0,0,0.04938271604938272,67.06172839506173,0)" xlink:href="#aA"/><use transform="matrix(0.04938271604938272,0,0,0.04938271604938272,77.87654320987654,0)" xlink:href="#aB"/><use transform="matrix(0.04938271604938272,0,0,0.04938271604938272,87.75308641975309,0)" xlink:href="#aq"/><use transform="matrix(0.04938271604938272,0,0,0.04938271604938272,98.12345679012346,0)" xlink:href="#aq"/></g><path d="M108 0H70L1-190h34L89-25l56-165h34" id="aC"/><g id="n"><use transform="matrix(0.05,0,0,0.05,0,0)" xlink:href="#ar"/><use transform="matrix(0.05,0,0,0.05,12,0)" xlink:href="#U"/><use transform="matrix(0.05,0,0,0.05,22,0)" xlink:href="#aC"/><use transform="matrix(0.05,0,0,0.05,31,0)" xlink:href="#T"/><use transform="matrix(0.05,0,0,0.05,34.95,0)" xlink:href="#W"/><use transform="matrix(0.05,0,0,0.05,44.95,0)" xlink:href="#Z"/></g><path d="M210-169c-67 3-38 105-44 169h-31v-121c0-29-5-50-35-48C34-165 62-65 56 0H25l-1-190h30c1 10-1 24 2 32 10-44 99-50 107 0 11-21 27-35 58-36 85-2 47 119 55 194h-31v-121c0-29-5-49-35-48" id="aD"/><g id="o"><use transform="matrix(0.05,0,0,0.05,0,0)" xlink:href="#Y"/><use transform="matrix(0.05,0,0,0.05,10,0)" xlink:href="#aD"/><use transform="matrix(0.05,0,0,0.05,24.950000000000003,0)" xlink:href="#W"/><use transform="matrix(0.05,0,0,0.05,34.95,0)" xlink:href="#T"/><use transform="matrix(0.05,0,0,0.05,38.900000000000006,0)" xlink:href="#av"/></g><path d="M115-194c55 1 70 41 70 98S169 2 115 4C84 4 66-9 55-30l1 105H24l-1-265h31l2 30c10-21 28-34 59-34zm-8 174c40 0 45-34 45-75s-6-73-45-74c-42 0-51 32-51 76 0 43 10 73 51 73" id="aE"/><g id="p"><use transform="matrix(0.05,0,0,0.05,0,0)" xlink:href="#aE"/><use transform="matrix(0.05,0,0,0.05,10,0)" xlink:href="#W"/><use transform="matrix(0.05,0,0,0.05,20,0)" xlink:href="#Z"/><use transform="matrix(0.05,0,0,0.05,25.950000000000003,0)" xlink:href="#W"/></g><path d="M101-234c-31-9-42 10-38 44h38v23H63V0H32v-167H5v-23h27c-7-52 17-82 69-68v24" id="aF"/><g id="q"><use transform="matrix(0.05,0,0,0.05,0,0)" xlink:href="#Z"/><use transform="matrix(0.05,0,0,0.05,5.95,0)" xlink:href="#Y"/><use transform="matrix(0.05,0,0,0.05,15.949999999999998,0)" xlink:href="#au"/><use transform="matrix(0.05,0,0,0.05,25.950000000000003,0)" xlink:href="#Y"/><use transform="matrix(0.05,0,0,0.05,35.95,0)" xlink:href="#aF"/><use transform="matrix(0.05,0,0,0.05,40.95,0)" xlink:href="#T"/><use transform="matrix(0.05,0,0,0.05,44.900000000000006,0)" xlink:href="#U"/><use transform="matrix(0.05,0,0,0.05,54.900000000000006,0)" xlink:href="#T"/><use transform="matrix(0.05,0,0,0.05,58.85,0)" xlink:href="#Z"/></g><use transform="matrix(0.05,0,0,0.05,0,0)" xlink:href="#W" id="r"/><path d="M106-169C34-169 62-67 57 0H25v-261h32l-1 103c12-21 28-36 61-36 89 0 53 116 60 194h-32v-121c2-32-8-49-39-48" id="aG"/><g id="s"><use transform="matrix(0.05,0,0,0.05,0,0)" xlink:href="#ab"/><use transform="matrix(0.05,0,0,0.05,9,0)" xlink:href="#Y"/><use transform="matrix(0.05,0,0,0.05,19,0)" xlink:href="#U"/><use transform="matrix(0.05,0,0,0.05,29,0)" xlink:href="#aG"/><use transform="matrix(0.05,0,0,0.05,39,0)" xlink:href="#W"/></g><path d="M145-31C134-9 116 4 85 4 32 4 16-35 15-94c0-59 17-99 70-100 32-1 48 14 60 33 0-11-1-24 2-32h30l-1 268h-32zM93-21c41 0 51-33 51-76s-8-73-50-73c-40 0-46 35-46 75s5 74 45 74" id="aH"/><g id="t"><use transform="matrix(0.05,0,0,0.05,0,0)" xlink:href="#ar"/><use transform="matrix(0.05,0,0,0.05,12,0)" xlink:href="#ab"/><use transform="matrix(0.05,0,0,0.05,21,0)" xlink:href="#aH"/><use transform="matrix(0.05,0,0,0.05,31,0)" xlink:href="#ae"/><use transform="matrix(0.05,0,0,0.05,41,0)" xlink:href="#Y"/><use transform="matrix(0.05,0,0,0.05,51,0)" xlink:href="#af"/><use transform="matrix(0.05,0,0,0.05,60,0)" xlink:href="#Y"/><use transform="matrix(0.05,0,0,0.05,70,0)" xlink:href="#ae"/></g><path d="M795-650L134-909v-190l854 378v146L134-196v-192" id="aI"/><g id="u"><use transform="matrix(0.037037037037037035,0,0,0.037037037037037035,0,0)" xlink:href="#ai"/><use transform="matrix(0.037037037037037035,0,0,0.037037037037037035,7.777777777777778,0)" xlink:href="#ai"/><use transform="matrix(0.008246527777777776,0,0,0.008246527777777776,15.555555555555555,0)" xlink:href="#aj"/><use transform="matrix(0.008246527777777776,0,0,0.008246527777777776,20.14887152777778,0)" xlink:href="#ak"/><use transform="matrix(0.008246527777777776,0,0,0.008246527777777776,29.467447916666664,0)" xlink:href="#al"/><use transform="matrix(0.008246527777777776,0,0,0.008246527777777776,38.30772569444444,0)" xlink:href="#am"/><use transform="matrix(0.008246527777777776,0,0,0.008246527777777776,42.40625,0)" xlink:href="#an"/><use transform="matrix(0.008246527777777776,0,0,0.008246527777777776,51.71657986111111,0)" xlink:href="#ao"/><use transform="matrix(0.008246527777777776,0,0,0.008246527777777776,61.24131944444444,0)" xlink:href="#ap"/><use transform="matrix(0.008246527777777776,0,0,0.008246527777777776,70.18880208333333,0)" xlink:href="#aI"/><use transform="matrix(0.008246527777777776,0,0,0.008246527777777776,79.01258680555554,0)" xlink:href="#aI"/></g><path d="M233-177c-1 41-23 64-60 70L243 0h-38l-65-103H63V0H30v-248c88 3 205-21 203 71zM63-129c60-2 137 13 137-47 0-61-80-42-137-45v92" id="aJ"/><g id="v"><use transform="matrix(0.05,0,0,0.05,0,0)" xlink:href="#aJ"/><use transform="matrix(0.05,0,0,0.05,12.950000000000001,0)" xlink:href="#Y"/><use transform="matrix(0.05,0,0,0.05,22.950000000000003,0)" xlink:href="#S"/><use transform="matrix(0.05,0,0,0.05,32.95,0)" xlink:href="#T"/><use transform="matrix(0.05,0,0,0.05,36.900000000000006,0)" xlink:href="#ab"/><use transform="matrix(0.05,0,0,0.05,45.900000000000006,0)" xlink:href="#X"/><use transform="matrix(0.05,0,0,0.05,50.900000000000006,0)" xlink:href="#Z"/><use transform="matrix(0.05,0,0,0.05,56.85,0)" xlink:href="#W"/><use transform="matrix(0.05,0,0,0.05,66.85000000000001,0)" xlink:href="#Z"/></g><g id="w"><use transform="matrix(0.043209876543209874,0,0,0.043209876543209874,0,0)" xlink:href="#ai"/><use transform="matrix(0.043209876543209874,0,0,0.043209876543209874,9.074074074074074,0)" xlink:href="#ai"/><use transform="matrix(0.00933159722222222,0,0,0.00933159722222222,18.14814814814815,0)" xlink:href="#aj"/><use transform="matrix(0.00933159722222222,0,0,0.00933159722222222,23.345847800925924,0)" xlink:href="#ak"/><use transform="matrix(0.00933159722222222,0,0,0.00933159722222222,33.89055266203703,0)" xlink:href="#al"/><use transform="matrix(0.00933159722222222,0,0,0.00933159722222222,43.894024884259245,0)" xlink:href="#am"/><use transform="matrix(0.00933159722222222,0,0,0.00933159722222222,48.531828703703695,0)" xlink:href="#an"/><use transform="matrix(0.00933159722222222,0,0,0.00933159722222222,59.06720196759258,0)" xlink:href="#ao"/><use transform="matrix(0.00933159722222222,0,0,0.00933159722222222,69.84519675925924,0)" xlink:href="#ap"/><use transform="matrix(0.043209876543209874,0,0,0.043209876543209874,79.96997974537035,0)" xlink:href="#aq"/><use transform="matrix(0.043209876543209874,0,0,0.043209876543209874,89.04405381944443,0)" xlink:href="#aq"/></g><g id="x"><use transform="matrix(0.05,0,0,0.05,0,0)" xlink:href="#Y"/><use transform="matrix(0.05,0,0,0.05,10,0)" xlink:href="#aD"/><use transform="matrix(0.05,0,0,0.05,24.950000000000003,0)" xlink:href="#W"/><use transform="matrix(0.05,0,0,0.05,34.95,0)" xlink:href="#T"/><use transform="matrix(0.05,0,0,0.05,38.900000000000006,0)" xlink:href="#av"/></g><g id="y"><use transform="matrix(0.05,0,0,0.05,0,0)" xlink:href="#au"/><use transform="matrix(0.05,0,0,0.05,10,0)" xlink:href="#Y"/></g><g id="z"><use transform="matrix(0.05,0,0,0.05,0,0)" xlink:href="#at"/><use transform="matrix(0.05,0,0,0.05,10,0)" xlink:href="#R"/><use transform="matrix(0.05,0,0,0.05,20,0)" xlink:href="#W"/><use transform="matrix(0.05,0,0,0.05,30,0)" xlink:href="#ab"/></g><g id="A"><use transform="matrix(0.05,0,0,0.05,0,0)" xlink:href="#aC"/><use transform="matrix(0.05,0,0,0.05,9,0)" xlink:href="#T"/><use transform="matrix(0.05,0,0,0.05,12.949999999999998,0)" xlink:href="#U"/><use transform="matrix(0.05,0,0,0.05,22.95,0)" xlink:href="#au"/><use transform="matrix(0.05,0,0,0.05,32.95,0)" xlink:href="#W"/><use transform="matrix(0.05,0,0,0.05,42.95,0)" xlink:href="#ab"/></g><g id="B"><use transform="matrix(0.05,0,0,0.05,0,0)" xlink:href="#aJ"/><use transform="matrix(0.05,0,0,0.05,12.950000000000001,0)" xlink:href="#Y"/><use transform="matrix(0.05,0,0,0.05,22.950000000000003,0)" xlink:href="#af"/><use transform="matrix(0.05,0,0,0.05,31.950000000000003,0)" xlink:href="#ae"/><use transform="matrix(0.05,0,0,0.05,41.95,0)" xlink:href="#aE"/><use transform="matrix(0.05,0,0,0.05,51.95,0)" xlink:href="#Y"/><use transform="matrix(0.05,0,0,0.05,61.95,0)" xlink:href="#Z"/><use transform="matrix(0.05,0,0,0.05,67.9,0)" xlink:href="#W"/><use transform="matrix(0.05,0,0,0.05,77.9,0)" xlink:href="#Z"/></g><g id="C"><use transform="matrix(0.05,0,0,0.05,0,0)" xlink:href="#aa"/><use transform="matrix(0.05,0,0,0.05,12,0)" xlink:href="#Y"/><use transform="matrix(0.05,0,0,0.05,22,0)" xlink:href="#ab"/><use transform="matrix(0.05,0,0,0.05,31,0)" xlink:href="#aH"/><use transform="matrix(0.05,0,0,0.05,41,0)" xlink:href="#ae"/><use transform="matrix(0.05,0,0,0.05,51,0)" xlink:href="#T"/><use transform="matrix(0.05,0,0,0.05,54.95,0)" xlink:href="#ab"/><use transform="matrix(0.05,0,0,0.05,63.95,0)" xlink:href="#W"/><use transform="matrix(0.05,0,0,0.05,73.95,0)" xlink:href="#Z"/></g></defs></g></svg>